<svg id="Ebene_1" data-name="Ebene 1" xmlns="http://www.w3.org/2000/svg" xmlns:xlink="http://www.w3.org/1999/xlink" viewBox="0 0 643.2 599.63"><defs><style>.cls-1{isolation:isolate;}.cls-2{fill:#14bdef;}.cls-3{fill:url(#Unbenannter_Verlauf_7);}.cls-4{fill:url(#Unbenannter_Verlauf_6);}.cls-5{fill:url(#Unbenannter_Verlauf_5);}</style><radialGradient id="Unbenannter_Verlauf_7" cx="196.2" cy="512.46" r="167.58" gradientTransform="matrix(5.27, 0, 0, -5.27, -646.76, 2638.57)" gradientUnits="userSpaceOnUse"><stop offset="0" stop-color="#00adee"/><stop offset="0" stop-color="#01adee"/><stop offset="0.05" stop-color="#15abe6"/><stop offset="0.1" stop-color="#22a9e2"/><stop offset="0.15" stop-color="#26a9e0"/><stop offset="0.33" stop-color="#1b75bb"/><stop offset="0.52" stop-color="#2b388f"/><stop offset="0.76" stop-color="#1c1651"/><stop offset="1" stop-color="#120742"/></radialGradient><radialGradient id="Unbenannter_Verlauf_6" cx="174.63" cy="517.02" r="175.26" xlink:href="#Unbenannter_Verlauf_7"/><radialGradient id="Unbenannter_Verlauf_5" cx="196.2" cy="512.46" r="167.58" xlink:href="#Unbenannter_Verlauf_7"/></defs><title>swacamp2019_RGB</title><g class="cls-1"><path class="cls-2" d="M101.08,508l-6.27,13.32C85.08,515.47,75.35,513,68.57,513,59.74,513,54,516.36,54,522.38c0,19.58,48.38,9.09,48.25,41.35,0,16-14.08,25.85-33.79,25.85a55.12,55.12,0,0,1-36.61-14.21l6.53-13c9.21,8.45,20.74,13,30.34,13,10.49,0,16.76-4,16.76-10.88,0-20-48.38-8.83-48.38-40.7,0-15.36,13.18-25,32.64-25A58.38,58.38,0,0,1,101.08,508Z" transform="translate(-31.83 -14.27)"/><path class="cls-2" d="M183,589.07l-17.28-50.43-17.28,50.43H133.33L108.25,521h15.1L141,574.48,158.17,521H173.4l17.28,53.51L208.09,521h15l-24.84,68.1Z" transform="translate(-31.83 -14.27)"/><path class="cls-2" d="M272.21,580.75c-4.86,6-12.67,9-22.52,9-14.73,0-23.94-9.09-23.94-21.12,0-12.42,9.34-20.35,25.73-20.48h20.61v-2.05c0-8.58-5.51-13.7-16.26-13.7-6.53,0-13.31,2.31-20.1,6.92l-6-10.25c9.47-5.63,16.38-8.57,29.31-8.57,17.54,0,27.39,9,27.52,23.94l.13,44.67H272.21Zm-.12-15.62v-6.27H253.65c-9.6,0-14.08,2.56-14.08,9.09,0,6.14,5,10.11,13.19,10.11C263.25,578.06,271.32,572.56,272.09,565.13Z" transform="translate(-31.83 -14.27)"/><path class="cls-2" d="M380.25,512.91l-8.83,11c-6.53-7-15.88-11.39-25-11.39-17.93,0-32,13.83-32,31.49s14.08,31.62,32,31.62c9,0,18.17-4.1,25-10.63l9,10c-9.09,9-22,14.72-34.69,14.72-26.24,0-46.6-19.84-46.6-45.57,0-25.47,20.61-45.06,47.11-45.06A49.46,49.46,0,0,1,380.25,512.91Z" transform="translate(-31.83 -14.27)"/><path class="cls-2" d="M435.67,580.75c-4.86,6-12.67,9-22.53,9-14.72,0-23.94-9.09-23.94-21.12,0-12.42,9.35-20.35,25.73-20.48h20.61v-2.05c0-8.58-5.5-13.7-16.25-13.7-6.53,0-13.32,2.31-20.1,6.92l-6-10.25c9.47-5.63,16.39-8.57,29.32-8.57,17.53,0,27.39,9,27.52,23.94l.12,44.67H435.67Zm-.13-15.62v-6.27H417.11c-9.6,0-14.08,2.56-14.08,9.09,0,6.14,5,10.11,13.18,10.11C426.71,578.06,434.77,572.56,435.54,565.13Z" transform="translate(-31.83 -14.27)"/><path class="cls-2" d="M583.64,546.7v42.37H568.92V550.8c0-10.37-6.14-16.64-16.13-16.64-11.65.38-18.69,9.34-18.69,21.24v33.67H519.38V550.8c0-10.37-6-16.64-16-16.64-11.78.38-18.94,9.34-18.94,21.24v33.67h-14.6V521h14.6v13.19c4.73-9.6,13.44-13.7,24.7-13.7,12.16,0,20.48,6,23.68,16.38,4.35-11.39,13.44-16.38,25.86-16.38C574.3,520.46,583.64,530.44,583.64,546.7Z" transform="translate(-31.83 -14.27)"/><path class="cls-2" d="M675,555.28c0,20.35-12.8,34.3-32.26,34.3-10.88,0-19.07-4.35-24.06-12.29V613.9H604V521h14.72v11.78c5-7.94,13.18-12.29,23.81-12.29C661.85,520.46,675,534.54,675,555.28Zm-14.85-.52c0-12.67-8.57-22-20.73-22s-20.74,9.21-20.74,22c0,13.19,8.57,22.28,20.74,22.28S660.18,567.82,660.18,554.76Z" transform="translate(-31.83 -14.27)"/></g><g id="logo_item--tagline_1" data-name="logo  item--tagline 1"><g class="cls-1"><path class="cls-2" d="M492.59,420.23c0,7.12-5.41,15-12.82,23l-18.23,19.33H495.8v10.62H445.91v-8.61l25.85-27.76c5.11-5.21,8.51-10.92,8.51-14.92,0-5.61-4.41-9-11.72-9-6.11,0-13.22,3.41-19.14,8.82l-4.7-9.12c7.61-6.21,16.53-10,25.54-10C483.48,402.6,492.59,409.51,492.59,420.23Z" transform="translate(-31.83 -14.27)"/><path class="cls-2" d="M565.56,438.17c0,22.74-10.62,35.36-29.76,35.36S506,460.91,506,438.17s10.62-35.37,29.85-35.37S565.56,415.42,565.56,438.17Zm-47.49,0c0,17.73,5.91,26.05,17.73,26.05s17.64-8.32,17.64-26.05-5.91-26.05-17.64-26.05S518.07,420.33,518.07,438.17Z" transform="translate(-31.83 -14.27)"/><path class="cls-2" d="M586.22,473.23V413.62H572.49V403.1H598v70.13Z" transform="translate(-31.83 -14.27)"/><path class="cls-2" d="M617.15,468.42l4.61-8.91a29.83,29.83,0,0,0,15.53,4.4c13.63,0,19.94-10.21,19.54-25.34-3.71,6.51-10.32,9.92-19.14,9.92-14,0-22.54-8.72-22.54-22.35,0-14.52,9.72-23.54,24.64-23.54,17.74,0,28.56,12.62,28.56,34.16,0,22.35-11.72,37-30.26,37A46.3,46.3,0,0,1,617.15,468.42Zm37.77-42.58c.1-6.11-4.4-13-14.52-13-8.52,0-14.23,4.91-14.23,13.42,0,8,5.21,12.93,13.73,12.93C649.41,439.17,655,433.06,654.92,425.84Z" transform="translate(-31.83 -14.27)"/></g></g><g id="logo_item--logo_0" data-name="logo  item--logo 0"><rect class="cls-2" x="149.4" y="70.2" width="127.38" height="127.38"/><rect class="cls-2" x="137.38" width="54.11" height="54.1"/><rect class="cls-2" x="83.49" y="37.66" width="39.64" height="39.62"/><path class="cls-3" d="M332.62,266.61v93.85H205.24V233.08H308.59c24-.55,25.55-12.12,24-51.28V103.23H460v127.4H374.53S332.62,230.47,332.62,266.61Z" transform="translate(-31.83 -14.27)"/><path class="cls-4" d="M547.76,145.54c-11.54-15.31-29.39-24.57-51.35-28.11a59.61,59.61,0,0,1,19.78,16.69c35.61,47.24-8.59,140.63-98.8,208.63s-192.14,84.78-227.73,37.54c-8.86-11.74-12.78-26.31-12.29-42.67-9.74,31.84-8,60.63,7.65,81.37,39.55,52.46,152.83,33.78,253-41.71S587.32,198,547.76,145.54Z" transform="translate(-31.83 -14.27)"/><path class="cls-5" d="M547.76,145.54c-11.54-15.31-29.39-24.57-51.35-28.11a59.61,59.61,0,0,1,19.78,16.69c35.61,47.24-8.59,140.63-98.8,208.63s-192.14,84.78-227.73,37.54c-8.86-11.74-12.78-26.31-12.29-42.67-9.74,31.84-8,60.63,7.65,81.37,39.55,52.46,152.83,33.78,253-41.71S587.32,198,547.76,145.54Z" transform="translate(-31.83 -14.27)"/><path class="cls-2" d="M403.93,328.56c31.61-23.81,57.53-50.75,76.38-77.71v-.21H352.92V361.06A378.56,378.56,0,0,0,403.93,328.56Z" transform="translate(-31.83 -14.27)"/></g></svg>